<svg width="24" height="24" viewBox="0 0 24 24" fill="none" xmlns="http://www.w3.org/2000/svg">
<mask id="path-1-inside-1" fill="white">
<path fill-rule="evenodd" clip-rule="evenodd" d="M15.6528 19.3753C17.2074 17.8393 21 13.7858 21 10.8C21 7.04446 18.3137 4 15 4C11.6863 4 9 7.04446 9 10.8C9 13.7858 12.7926 17.8393 14.3472 19.3753C14.7134 19.7371 15.2866 19.7371 15.6528 19.3753ZM15 11.9333C15.9038 11.9333 16.6364 11.1722 16.6364 10.2333C16.6364 9.29444 15.9038 8.53333 15 8.53333C14.0963 8.53333 13.3637 9.29444 13.3637 10.2333C13.3637 11.1722 14.0963 11.9333 15 11.9333Z"/>
</mask>
<path d="M15.6528 19.3753L16.3556 20.0867H16.3556L15.6528 19.3753ZM14.3472 19.3753L13.6444 20.0867L13.6444 20.0867L14.3472 19.3753ZM20 10.8C20 11.3468 19.8227 12.0107 19.475 12.7648C19.1311 13.5107 18.6472 14.288 18.0993 15.045C17.003 16.5598 15.7097 17.9133 14.9499 18.664L16.3556 20.0867C17.1504 19.3013 18.5308 17.86 19.7195 16.2176C20.314 15.3961 20.8754 14.5041 21.2912 13.6022C21.7032 12.7086 22 11.7462 22 10.8H20ZM15 5C17.6475 5 20 7.47545 20 10.8H22C22 6.61347 18.9799 3 15 3V5ZM10 10.8C10 7.47545 12.3525 5 15 5V3C11.0201 3 8 6.61347 8 10.8H10ZM15.0501 18.664C14.2903 17.9133 12.997 16.5598 11.9007 15.045C11.3528 14.288 10.8689 13.5107 10.525 12.7648C10.1773 12.0107 10 11.3468 10 10.8H8C8 11.7462 8.29675 12.7086 8.70876 13.6022C9.12457 14.5041 9.68596 15.3961 10.2805 16.2176C11.4692 17.86 12.8496 19.3013 13.6444 20.0867L15.0501 18.664ZM14.9499 18.664C14.9519 18.662 14.9581 18.657 14.9683 18.6528C14.9781 18.6488 14.9889 18.6467 15 18.6467C15.0111 18.6467 15.0219 18.6488 15.0317 18.6528C15.0419 18.657 15.0481 18.662 15.0501 18.664L13.6444 20.0867C14.4001 20.8334 15.5999 20.8334 16.3556 20.0867L14.9499 18.664ZM15.6364 10.2333C15.6364 10.6562 15.3159 10.9333 15 10.9333V12.9333C16.4917 12.9333 17.6364 11.6882 17.6364 10.2333H15.6364ZM15 9.53333C15.3159 9.53333 15.6364 9.81042 15.6364 10.2333H17.6364C17.6364 8.77846 16.4917 7.53333 15 7.53333V9.53333ZM14.3637 10.2333C14.3637 9.81042 14.6842 9.53333 15 9.53333V7.53333C13.5084 7.53333 12.3637 8.77846 12.3637 10.2333H14.3637ZM15 10.9333C14.6842 10.9333 14.3637 10.6562 14.3637 10.2333H12.3637C12.3637 11.6882 13.5084 12.9333 15 12.9333V10.9333Z" fill="black" fill-opacity="0.4" mask="url(#path-1-inside-1)"/>
<path fill-rule="evenodd" clip-rule="evenodd" d="M8.19185 8.21875C6.34457 8.85381 5 10.7989 5 13.0999C5 15.2421 7.60283 18.1169 8.84943 19.3709C9.21234 19.736 9.78766 19.736 10.1506 19.3709C10.5772 18.9417 11.1626 18.3228 11.7482 17.6083C11.5136 17.4163 11.2599 17.1943 11 16.9436C10.9922 16.9532 10.9844 16.9628 10.9765 16.9723C10.4427 17.6238 9.90615 18.1954 9.5 18.6067C9.09386 18.1954 8.5573 17.6238 8.02349 16.9723C7.48329 16.3131 6.96312 15.5929 6.58243 14.8901C6.19256 14.1702 6 13.5609 6 13.0999C6 11.3674 6.88648 9.989 8.06857 9.36405C8.09028 8.92923 8.13692 8.54468 8.19185 8.21875Z" fill="black" fill-opacity="0.4"/>
</svg>
