<svg width="20" height="21" viewBox="0 0 20 21" fill="none" xmlns="http://www.w3.org/2000/svg">
<path fill-rule="evenodd" clip-rule="evenodd" d="M7.68178 1.29359C7.59144 1.02258 7.88504 0.819325 8.08829 0.977413C8.90132 1.65493 10.3015 2.87446 11.4759 4.50051C14.0279 8.09136 13.5084 10.553 12.8083 11.8403L13.1245 12.6985L15.7586 13.7006C15.658 13.0455 15.865 12.352 16.3541 11.8629C16.4219 11.7951 16.4896 11.7274 16.58 11.6822C17.5059 10.9821 18.8384 11.1402 19.5611 12.0887C20.216 12.9243 20.1257 14.1439 19.3804 14.8891C19.3465 14.923 19.307 14.9513 19.2675 14.9795L19.2674 14.9795C19.2279 15.0077 19.1884 15.036 19.1546 15.0698C18.4752 15.5835 17.577 15.6352 16.8614 15.2516L13.5988 14.031L14.8183 17.4185C14.8322 17.4603 14.8404 17.5021 14.8435 17.5432C15.1743 18.3229 15.0059 19.2638 14.3895 19.8802C14.3556 19.9141 14.3161 19.9423 14.2766 19.9705C14.237 19.9987 14.1975 20.027 14.1636 20.0609C13.2377 20.761 11.8827 20.5803 11.1826 19.6543C10.5276 18.8187 10.618 17.5992 11.3632 16.8539C11.431 16.7862 11.4987 16.7184 11.5891 16.6733C12.0853 16.2981 12.6982 16.1693 13.2715 16.2767L12.2889 13.5341L11.4759 13.2179C10.1886 13.918 7.70436 14.5504 4.04576 11.9306C2.39713 10.7789 1.1776 9.37865 0.52266 8.54305C0.341988 8.31721 0.567827 8.04619 0.838834 8.13653L7.63661 10.6434L10.0079 11.5241L11.7243 12.1565L7.68178 1.29359ZM17.2726 14.2996C17.6318 14.5228 18.1188 14.5112 18.4996 14.2342L18.6125 14.1213C18.9965 13.7374 19.0642 13.1276 18.7255 12.6985C18.3867 12.2242 17.7092 12.1339 17.2123 12.4952L17.0994 12.6082C16.7381 12.9695 16.6703 13.5793 16.9865 14.031C17.047 14.1157 17.1184 14.1882 17.1976 14.248L17.28 14.2794L17.2726 14.2996ZM12.0859 17.5766L12.1988 17.4637C12.6957 17.1024 13.3732 17.1927 13.712 17.667C14.0507 18.096 13.983 18.7058 13.599 19.0897L13.4861 19.2027C12.9893 19.564 12.3118 19.4737 11.973 18.9994C11.6568 18.5929 11.702 17.9605 12.0859 17.5766Z" fill="black" fill-opacity="0.4"/>
</svg>
