<svg width="17" height="11" viewBox="0 0 17 11" fill="none" xmlns="http://www.w3.org/2000/svg">
<path fill-rule="evenodd" clip-rule="evenodd" d="M0.5 0.5C0.5 0.223858 0.723858 0 1 0H16C16.2761 0 16.5 0.223858 16.5 0.5C16.5 0.776142 16.2761 1 16 1H1C0.723858 1 0.5 0.776142 0.5 0.5ZM0.5 5.5C0.5 5.22386 0.723858 5 1 5H12C12.2761 5 12.5 5.22386 12.5 5.5C12.5 5.77614 12.2761 6 12 6H1C0.723858 6 0.5 5.77614 0.5 5.5ZM16.5 10.5C16.5 10.2239 16.2761 10 16 10H1C0.723858 10 0.5 10.2239 0.5 10.5C0.5 10.7761 0.723858 11 1 11H16C16.2761 11 16.5 10.7761 16.5 10.5Z" fill="black" fill-opacity="0.4"/>
</svg>
