<svg width="24" height="24" viewBox="0 0 24 24" fill="none" xmlns="http://www.w3.org/2000/svg">
<path fill-rule="evenodd" clip-rule="evenodd" d="M13 8C13 7.44772 12.5523 7 12 7C11.4477 7 11 7.44772 11 8V10C11 10.5523 10.5523 11 10 11L8 11C7.44772 11 7 11.4477 7 12C7 12.5523 7.44772 13 8 13H10C10.5523 13 11 13.4477 11 14V16C11 16.5523 11.4477 17 12 17C12.5523 17 13 16.5523 13 16V14C13 13.4477 13.4477 13 14 13H16C16.5523 13 17 12.5523 17 12C17 11.4477 16.5523 11 16 11L14 11C13.4477 11 13 10.5523 13 10V8Z" fill="black" fill-opacity="0.4"/>
<rect x="0.5" y="0.5" width="23" height="23" rx="11.5" stroke="black" stroke-opacity="0.4"/>
</svg>
